<?xml version="1.0" encoding="utf-8"?>
<!-- Generator: Adobe Illustrator 18.0.0, SVG Export Plug-In . SVG Version: 6.00 Build 0)  -->
<!DOCTYPE svg PUBLIC "-//W3C//DTD SVG 1.1//EN" "http://www.w3.org/Graphics/SVG/1.1/DTD/svg11.dtd">
<svg version="1.1" xmlns="http://www.w3.org/2000/svg" xmlns:xlink="http://www.w3.org/1999/xlink" x="0px" y="0px"
	 viewBox="0 0 30 30" enable-background="new 0 0 30 30" xml:space="preserve">
<g id="Layer_1">
</g>
<g id="Layer_2">
	<path fill="#777777" d="M15,0C6.7,0,0,6.7,0,15c0,8.3,6.7,15,15,15s15-6.7,15-15C30,6.7,23.3,0,15,0z M22.3,20.4l-2.1,2.1
		c0,0-3.6,0.3-8.4-4.4c-4.6-4.8-4.3-8.4-4.3-8.4l2.1-2.1c0.3-0.3,0.8-0.2,1,0.1l1.8,2.5c0.3,0.3,0.2,0.8-0.1,1.1l-1.6,1.6
		c0.8,1,1.7,2.2,2.9,3.4c1.2,1.2,2.4,2.2,3.4,2.9l1.6-1.6c0.3-0.3,0.8-0.3,1.1-0.1l2.5,1.7C22.5,19.6,22.6,20.1,22.3,20.4z"/>
</g>
</svg>
